# xmcd CD database file
#
# Track frame offsets:
#	150
#	14754
#	28711
#	41179
#	58486
#	69212
#	88186
#	106919
#	123354
#	135666
#	148552
#	163785
#	180193
#	192488
#	209094
#	219658
#	231023
#
# Disc length: 3295 seconds
#
# Revision: 0
# Processed by: cddbd v1.5.2PL0 Copyright (c) Steve Scherf et al.
# Submitted via: CDex 1.79
#
DISCID=030cdd11
DTITLE=The Big Swing Band - At Last
DYEAR=2012
DGENRE=Jazz
TTITLE0=Back Bay Shuffle
TTITLE1=Elmers Tune
TTITLE2=The Good Life
TTITLE3=Hayburner
TTITLE4=Get Me To The Church
TTITLE5=In a Sentimental Mood
TTITLE6=At Last
TTITLE7=Leave Us Leap
TTITLE8=Call Me
TTITLE9=It Must Be Jelly
TTITLE10=Why Don't You Do Right
TTITLE11=Getting Sentimental Over You
TTITLE12=Buona Sera
TTITLE13=Makin' Whoopee
TTITLE14=Let's Dance
TTITLE15=I've Got The World On A String
TTITLE16=Sweet Georgia Brown
EXTD=YEAR: 2012
EXTT0=
EXTT1=
EXTT2=
EXTT3=
EXTT4=
EXTT5=
EXTT6=
EXTT7=
EXTT8=
EXTT9=
EXTT10=
EXTT11=
EXTT12=
EXTT13=
EXTT14=
EXTT15=
EXTT16=
PLAYORDER=
